PathFileType	4	(X/Y/Z)	C:/Users/opensim2020/Desktop/walking_exp_matlab/subject01_walking08_straight_01.trc																																																																																																																															
DataRate	CameraRate	NumFrames	NumMarkers	Units	OrigDataRate	OrigDataStartFrame	OrigNumFrames																																																																																																																											
100	100	4	43	mm	100	777	377																																																																																																																											
Frame#	Time	LFHD			RFHD			LBHD			RBHD			C7			T10			CLAV			STRN			RBAK			LSHO			LUPA			LELB			LFRM			LWRA			LWRB			LFIN			RSHO			RUPA			RELB			RFRM			RWRA			RWRB			RFIN			LASI			RASI			LPSI			RPSI			LTHI			LKNE			LTIB			LANK			LHEE			LTOE			RTHI			RKNE			RTIB			RANK			RHEE			RTOE			*39			*40			*41			*42		
		X1	Y1	Z1	X2	Y2	Z2	X3	Y3	Z3	X4	Y4	Z4	X5	Y5	Z5	X6	Y6	Z6	X7	Y7	Z7	X8	Y8	Z8	X9	Y9	Z9	X10	Y10	Z10	X11	Y11	Z11	X12	Y12	Z12	X13	Y13	Z13	X14	Y14	Z14	X15	Y15	Z15	X16	Y16	Z16	X17	Y17	Z17	X18	Y18	Z18	X19	Y19	Z19	X20	Y20	Z20	X21	Y21	Z21	X22	Y22	Z22	X23	Y23	Z23	X24	Y24	Z24	X25	Y25	Z25	X26	Y26	Z26	X27	Y27	Z27	X28	Y28	Z28	X29	Y29	Z29	X30	Y30	Z30	X31	Y31	Z31	X32	Y32	Z32	X33	Y33	Z33	X34	Y34	Z34	X35	Y35	Z35	X36	Y36	Z36	X37	Y37	Z37	X38	Y38	Z38	X39	Y39	Z39	X40	Y40	Z40	X41	Y41	Z41	X42	Y42	Z42	X43	Y43	Z43
																																																																																																																																		
48	0.47	-1006.08411	1664.01111	-1082.09741	-996.67535	1676.12622	-969.13715	-1107.11914	1589.72607	-1074.50989	-1099.79016	1600.04785	-954.4353	-1110.10083	1419.67505	-1026.146	-1147.7666	1128.63074	-1004.6319	-964.75287	1352.66675	-1020.72168	-924.25378	1195.02222	-1015.82471	-1165.48376	1232.13855	-937.09503	-1023.96155	1372.77441	-1183.245	-1063.26855	1184.95886	-1258.42542	-1087.75464	1037.38452	-1251.57019	-1062.06335	926.12506	-1272.72351	-998.74493	802.6864	-1248.87317	-1052.76782	804.06519	-1276.40027	-1013.82855	727.5752	-1279.4292	-1027.25952	1385.41565	-870.62268	-1062.67639	1187.47571	-757.55878	-1048.8197	1061.70203	-751.19098	-1000.75842	948.55652	-730.40179	-912.73724	843.4834	-770.03937	-947.26672	838.10773	-722.64252	-899.95581	767.51776	-733.56598	-970.53241	925.48151	-1095.85315	-992.45483	916.42798	-879.34912	-1161.3457	934.02118	-1064.13464	-1172.72021	935.80579	-920.41321	-932.30896	607.50421	-1169.45447	-912.14001	476.25281	-1154.48572	-918.66412	288.4856	-1176.15503	-887.23468	67.82548	-1133.77258	-924.15906	28.15951	-1081.00476	-739.08313	62.41375	-1134.93469	-1096.03711	588.12854	-840.12439	-1114.1283	430.14713	-869.28052	-1193.85205	272.3681	-864.11121	-1251.41772	73.06066	-917.61334	-1302.29993	36.57652	-969.30029	-1113.22827	29.36927	-920.7334	-1017.43359	1704.48059	-992.20801	1973.11108	1023.71436	-3101.90747	2012.57031	1021.98932	-3140.56885	NaN	NaN	NaN
49	0.48	-1001.57977	1663.83765	-1084.70154	-991.67249	1676.1864	-971.24701	-1102.27673	1589.06934	-1077.09485	-1095.12402	1599.51294	-957.00519	-1104.5592	1419.09021	-1028.53149	-1141.95117	1128.11426	-1006.49597	-959.7149	1352.45837	-1023.08771	-918.53796	1194.86755	-1017.7901	-1159.89648	1231.66931	-939.40918	-1018.66949	1372.1416	-1185.56409	-1057.51843	1184.1001	-1260.526	-1081.58289	1036.40295	-1253.49268	-1055.73169	925.35828	-1274.60266	-991.69836	802.00946	-1250.40552	-1045.74878	803.19177	-1277.99817	-1006.46576	727.04761	-1281.05322	-1021.53088	1385.57349	-872.93109	-1057.7821	1187.38342	-759.60992	-1044.24951	1061.57996	-753.05426	-996.17267	948.32928	-732.07465	-908.0293	843.1825	-771.55713	-942.51007	837.91357	-724.30078	-895.5257	767.43604	-735.16083	-964.12305	925.06531	-1097.21484	-986.58972	916.0105	-880.82111	-1155.14709	933.68103	-1066.21777	-1166.88855	935.60791	-922.50049	-926.24707	607.12012	-1169.45361	-907.37817	475.48856	-1155.19702	-915.63519	287.60648	-1175.78577	-884.7605	67.74166	-1133.4884	-923.07031	29.40527	-1080.78906	-736.76819	59.41266	-1135.09961	-1091.3479	587.91162	-841.1839	-1109.63318	429.96844	-870.00323	-1191.56714	273.10248	-864.49945	-1250.3999	73.77027	-917.69806	-1302.5343	38.24157	-969.24536	-1113.14844	29.31258	-920.49036	-1013.19165	1704.10986	-994.80084	1973.1239	1023.48346	-3101.81763	2012.51282	1022.01123	-3140.57031	NaN	NaN	NaN
50	0.49	-996.87146	1663.76855	-1087.16626	-987.78949	1676.06897	-974.28809	-1097.35266	1588.59009	-1079.70386	-1090.44653	1599.20178	-959.59052	-1099.17615	1418.92578	-1030.96277	-1136.16638	1127.86243	-1008.42029	-953.93671	1352.44348	-1025.25012	-912.80853	1194.99792	-1019.91241	-1154.40613	1231.35632	-941.77747	-1013.29681	1371.63171	-1187.96936	-1051.58276	1183.26074	-1262.62085	-1075.38257	1035.4812	-1255.47925	-1048.9469	924.4646	-1276.41687	-984.50415	801.50415	-1251.91772	-1038.50354	802.48694	-1279.74548	-998.86469	726.38654	-1282.57141	-1016.74615	1385.34448	-875.08051	-1052.97266	1187.40894	-761.68994	-1039.6012	1061.54126	-754.99493	-991.63214	948.26025	-733.79694	-903.46637	843.10828	-773.16455	-938.03485	837.87549	-725.92261	-890.79169	767.3371	-736.69415	-957.82635	924.81018	-1098.52209	-980.68652	915.70569	-882.33624	-1148.8811	933.61285	-1068.33618	-1160.70886	935.12616	-924.66339	-920.37903	607.0564	-1169.94482	-902.99396	475.15555	-1155.93091	-911.7337	287.34995	-1175.37646	-882.30835	67.52408	-1133.64514	-921.42731	30.32265	-1081.06104	-734.42493	56.59829	-1134.63123	-1086.25476	587.77631	-842.32275	-1105.15784	429.46216	-870.82825	-1189.23584	274.01053	-865.11151	-1249.52441	74.63313	-917.75006	-1302.06372	40.07104	-969.19397	-1113.31738	29.34009	-920.30737	-1008.88647	1704.07031	-997.36902	1973.14954	1023.57703	-3101.91895	2012.55432	1022.06934	-3140.5437	NaN	NaN	NaN
51	0.5	-992.25964	1663.81787	-1089.80457	-983.05652	1676.27185	-976.58472	-1092.40649	1588.25134	-1082.39392	-1085.68445	1598.98401	-962.26788	-1093.72839	1418.91052	-1033.37683	-1130.45691	1127.84595	-1010.24518	-948.4386	1352.58801	-1027.67249	-907.12219	1195.26782	-1022.02386	-1148.90234	1231.2052	-944.0412	-1007.83679	1371.229	-1190.35925	-1045.65234	1182.69373	-1264.8324	-1068.97473	1034.77356	-1257.54639	-1041.9386	923.8255	-1278.14795	-977.09833	801.17902	-1253.52185	-1031.13818	801.80786	-1281.26709	-991.0802	726.12933	-1284.08008	-1011.21808	1385.4624	-877.44043	-1048.06921	1187.5769	-763.86707	-1034.96155	1061.6991	-757.02179	-987.08344	948.31897	-735.55811	-899.08148	843.10022	-774.80914	-933.11456	837.84167	-727.5069	-886.48846	767.34613	-738.26801	-951.48346	924.72699	-1099.96118	-974.71576	915.62842	-883.91058	-1142.51563	933.76837	-1070.40759	-1155.33545	935.38519	-926.59949	-914.84686	607.23242	-1171.09167	-898.32062	475.422	-1157.01929	-907.69904	287.34183	-1176.03052	-880.24573	67.09837	-1133.85693	-920.34473	30.85929	-1081.43213	-732.23346	53.28472	-1133.52698	-1080.70874	587.63745	-843.46521	-1099.57471	429.66687	-871.57214	-1186.28613	275.1189	-865.71796	-1249.73828	76.62038	-917.6286	-1301.82947	42.40027	-969.19507	-1112.98047	29.25401	-920.07037	-1004.49457	1703.90686	-1000.10657	1972.91467	1023.76239	-3102.20532	2012.47693	1021.97491	-3140.54224	NaN	NaN	NaN
